<?xml version="1.0" encoding="utf-8"?>
<!-- Generator: Adobe Illustrator 19.1.0, SVG Export Plug-In . SVG Version: 6.00 Build 0)  -->
<svg version="1.1" id="Layer_1" xmlns="http://www.w3.org/2000/svg" xmlns:xlink="http://www.w3.org/1999/xlink" x="0px" y="0px"
	 width="53.7px" height="52px" viewBox="-278 371 53.7 52" style="enable-background:new -278 371 53.7 52;" xml:space="preserve">
<style type="text/css">
	.st0{clip-path:url(#SVGID_2_);}
	.st1{fill:#006643;}
	.st2{fill:#FFA100;}
</style>
<g>
	<g>
		<defs>
			<rect id="SVGID_1_" x="-277.4" y="370.7" width="54.2" height="52.3"/>
		</defs>
		<clipPath id="SVGID_2_">
			<use xlink:href="#SVGID_1_"  style="overflow:visible;"/>
		</clipPath>
		<g id="cheque" class="st0">
			<g id="cheque-2" transform="translate(308 308.178)">
				<g id="Group_4" transform="translate(13.153 46.034)">
					<g id="Group_3">
						<rect id="Rectangle_1" x="-589.6" y="42.8" class="st1" width="8.6" height="1.3"/>
					</g>
				</g>
				<g id="Group_6" transform="translate(13.153 54.791)">
					<g id="Group_5" transform="translate(0 0)">
						<rect id="Rectangle_2" x="-589.7" y="42.8" class="st2" width="20.8" height="1.3"/>
					</g>
				</g>
				<g id="Group_8" transform="translate(4.384 63.56)">
					<g id="Group_7">
						<rect id="Rectangle_3" x="-581.1" y="38.6" class="st2" width="21.2" height="1.3"/>
					</g>
				</g>
				<g id="Group_10" transform="translate(23.665 63.56)">
					<g id="Group_9">
						<rect id="Rectangle_4" x="-569" y="38.6" class="st1" width="5.8" height="1.3"/>
					</g>
				</g>
				<g id="Group_12" transform="translate(0 19.822)">
					<g id="Group_11" transform="translate(0 0)">
						<path id="Path_4" class="st1" d="M-540.9,66.7l4.9-10.9c0.8-1.7-0.1-3.6-1.9-4.3l0,0l-2.7-1c-1.8-0.6-3.9,0.1-4.7,1.8
							l-6.5,14.4h-28.5v21h44.6v-21H-540.9z M-543.9,52.8c0.5-1,1.7-1.5,2.8-1.1l0,0l2.7,1c1.1,0.4,1.6,1.5,1.2,2.5l0,0L-538,57
							l-6.6-2.5L-543.9,52.8z M-545.3,55.8l2.7,1l-6.8,15.2l1.2,0.5l6.9-15.1l2.7,1l-6.9,15.2l-6.6-2.5L-545.3,55.8z M-553.9,74.6
							l1.1-2.4l6.6,2.5l-1.1,2.4L-553.9,74.6z M-548.3,78.2l-4.8,3.2l-0.9-5.3L-548.3,78.2z M-578.9,86.4V68h26.5l-3.1,6.9l1.4,8.8
							l7.9-5.3l4.7-10.4h4.4v18.4H-578.9z"/>
					</g>
				</g>
			</g>
		</g>
	</g>
</g>
<g id="Group_6_1_" transform="translate(13.153 54.791)">
	<g id="Group_5_1_" transform="translate(0 0)">
		<rect id="Rectangle_2_1_" x="-281.7" y="346.5" class="st2" width="18.5" height="1.3"/>
	</g>
</g>
</svg>
