<?xml version="1.0" encoding="utf-8"?>
<!-- Generator: Adobe Illustrator 19.1.0, SVG Export Plug-In . SVG Version: 6.00 Build 0)  -->
<svg version="1.1" id="Layer_1" xmlns="http://www.w3.org/2000/svg" xmlns:xlink="http://www.w3.org/1999/xlink" x="0px" y="0px"
	 width="53.6px" height="43.3px" viewBox="-278 375.7 53.6 43.3" style="enable-background:new -278 375.7 53.6 43.3;"
	 xml:space="preserve">
<style type="text/css">
	.st0{fill:#FFA100;}
	.st1{fill:#006643;}
</style>
<g id="Layer_2">
	<g id="Layer_1-2">
		<path class="st0" d="M-241.8,394.6v23.9h-35.3v-23.8c0.2,0,0.3,0,0.5,0h7.2c0.3,0,0.5,0.1,0.7,0.3c1.4,2.4,4.6,3.1,7,1.6
			c0.7-0.4,1.2-1,1.6-1.6c0.2-0.3,0.5-0.5,0.9-0.5c5.6,0,11.3,0,17,0L-241.8,394.6z M-268.7,409.2h3.4c0.7,0.1,1.2-0.4,1.3-1
			c0-0.1,0-0.2,0-0.3c0-2.3,0-4.6,0-6.8c0.1-0.7-0.4-1.2-1-1.3c-0.1,0-0.2,0-0.3,0c-2.3,0-4.6,0-6.9,0c-0.7-0.1-1.2,0.4-1.3,1
			c0,0.1,0,0.2,0,0.3c0,2.3,0,4.6,0,6.8c-0.1,0.7,0.4,1.2,1,1.3c0.1,0,0.2,0,0.3,0H-268.7z M-259.5,415.4h12.7
			c0.7,0.1,1.2-0.4,1.3-1c0-0.2,0-0.5-0.1-0.7c-0.3-0.5-0.8-0.8-1.3-0.8H-272c-1,0-1.6,0.5-1.6,1.2s0.6,1.2,1.6,1.2H-259.5z"/>
		<path class="st1" d="M-232.6,396.2l-6,5.8v-7.7c0.2-1.1-0.6-2.1-1.7-2.3c-0.2,0-0.4,0-0.6,0h-9.2c-0.4,0-0.7-0.1-0.9-0.4
			c-1.9-2.1-3.8-4.1-5.7-6.2c-0.4-0.4-0.8-0.8-1.5-0.6c-0.4,0.1-0.7,0.4-0.9,0.8c-1.1,2.5-2.2,5.1-3.3,7.6c-0.6,1.4-2.1,2-3.5,1.6
			c-1.4-0.6-2.2-2.2-1.6-3.7c0.7-1.9,1.5-3.7,2.3-5.6l2.8-6.7c0.6-1.8,2.6-2.9,4.4-2.2c0.3,0.1,0.5,0.2,0.8,0.4l11.6,6.1
			c0.2,0.1,0.4,0.2,0.6,0.4c4,4.1,8.1,8.3,12.1,12.4C-232.7,396-232.6,396.1-232.6,396.2z"/>
		<path class="st1" d="M-224.4,388.2l-6.4,6.2l-11.8-12.1l6.3-6L-224.4,388.2z M-230.5,391.4c1.8-0.1,3.2-1.6,3.2-3.5
			c-0.1-1.7-1.4-3.1-3.1-3.2c-1.8-0.1-3.4,1.3-3.5,3.1c-0.1,1.8,1.3,3.4,3.1,3.5C-230.7,391.4-230.6,391.4-230.5,391.4z"/>
		<path class="st1" d="M-230.5,389.7c-0.9,0-1.6-0.7-1.6-1.6c0-0.9,0.7-1.6,1.6-1.6s1.6,0.7,1.6,1.6
			C-228.9,388.9-229.6,389.6-230.5,389.7z"/>
	</g>
</g>
</svg>
