<?xml version="1.0" encoding="utf-8"?>
<!-- Generator: Adobe Illustrator 19.1.0, SVG Export Plug-In . SVG Version: 6.00 Build 0)  -->
<svg version="1.1" id="Layer_1" xmlns="http://www.w3.org/2000/svg" xmlns:xlink="http://www.w3.org/1999/xlink" x="0px" y="0px"
	 width="53.7px" height="52px" viewBox="-278 371 53.7 52" style="enable-background:new -278 371 53.7 52;" xml:space="preserve">
<style type="text/css">
	.st0{fill:#FFA100;}
	.st1{fill:#006643;}
</style>
<g id="Layer_2">
	<g id="Layer_1-2">
		<path class="st0" d="M-241.6,413.7h-15.9c-1.3,0-1.5-0.3-1.3-1.5c0.3-2.1,0.6-4,1-6.1c0.3-1.3,1-2.4,2.2-3
			c2.2-1.2,4.4-2.4,6.7-3.5c0.5-0.1,1,0.1,1.4,0.4c3.3,2.6,7.3,3,10.7,0.8c0.5-0.3,1-0.6,1.4-1c0.4-0.4,1-0.4,1.4-0.1
			c2,1,4,2.1,6,3.1c1.5,0.8,2.6,2.2,2.8,4c0.2,1.8,0.5,3.5,0.8,5.3c0.2,1.2-0.1,1.5-1.3,1.5h-15.9V413.7z"/>
		<path class="st0" d="M-234.7,392.8c-0.2,0.5-2.3,5.7-6.7,5.8c-3.8,0.1-6.4-3.6-7.3-6.2c-0.3-0.8-1.1-3.3,0.1-6.3
			c1-2.6,3.7-6,7.4-5.8c4.3,0.2,6.4,5.1,6.6,5.5C-233.3,389.1-234.4,392-234.7,392.8z"/>
	</g>
</g>
<g id="Layer_2_1_">
	<g>
		<g id="Layer_1-2_7_">
			<path class="st1" d="M-260.8,413.7h-15.9c-1.3,0-1.5-0.3-1.3-1.5c0.3-2.1,0.6-4,1-6.1c0.3-1.3,1-2.4,2.2-3
				c2.2-1.2,4.4-2.4,6.7-3.5c0.5-0.1,1,0.1,1.4,0.4c3.3,2.6,7.3,3,10.7,0.8c0.5-0.3,1-0.6,1.4-1c0.4-0.4,1-0.4,1.4-0.1
				c2,1,4,2.1,6,3.1c1.5,0.8,2.6,2.2,2.8,4c0.2,1.7,0.5,3.5,0.8,5.3c0.2,1.2-0.1,1.5-1.3,1.5h-15.9V413.7z"/>
			<path class="st1" d="M-253.8,392.8c-0.2,0.5-2.3,5.7-6.7,5.8c-3.8,0.1-6.4-3.6-7.3-6.2c-0.3-0.8-1.1-3.3,0.1-6.3
				c1-2.6,3.7-6,7.4-5.8c4.3,0.2,6.4,5.1,6.6,5.5C-252.5,389.1-253.5,392-253.8,392.8z"/>
		</g>
	</g>
</g>
</svg>
